<svg version="1.0" xmlns="http://www.w3.org/2000/svg" width="842.000000pt" height="595.000000pt" viewBox="-3 -3 848 601" preserveAspectRatio="xMidYMid meet"><g id="deeditor_bgCarrier" stroke-width="0">
    <rect id="dee_c_e" x="-3" y="-3" width="848" height="601" rx="0" fill="#000000" strokewidth="0"/>
  </g>

<g transform="translate(0.000000,595.000000) scale(0.100000,-0.100000)" fill="#ffffff" stroke="none">
<path d="M5980 4408 c0 -51 -27 -153 -54 -207 -37 -72 -114 -137 -193 -161 -36 -11 -84 -20 -108 -20 l-42 0 -7 -46 c-10 -79 -6 -264 9 -377 61 -458 304 -907 756 -1395 l122 -133 50 48 c79 78 245 266 330 376 248 319 418 660 487 982 16 75 23 149 27 297 3 108 3 208 -1 221 -5 22 -12 25 -70 29 -72 6 -165 44 -210 86 -62 58 -107 162 -121 275 l-6 57 -485 0 -484 0 0 -32z m801 -230 c34 -128 120 -225 259 -291 102 -48 96 -33 80 -198 -33 -322 -143 -628 -324 -904 -77 -118 -190 -257 -278 -343 l-55 -53 -91 103 c-343 388 -519 756 -562 1177 -18 184 -23 170 75 215 141 64 235 166 265 289 l12 47 304 0 303 0 12 -42z" fill="#ffffff"/>
<path d="M6320 4032 c-92 -31 -142 -62 -211 -131 -200 -201 -200 -510 1 -711 201 -201 510 -201 711 -1 113 113 154 222 147 388 -4 96 -7 108 -46 187 -56 111 -127 183 -239 238 -81 40 -87 42 -196 45 -88 2 -124 -1 -167 -15z m130 -52 c0 -35 -3 -40 -23 -40 -43 0 -125 -30 -178 -65 l-52 -36 -24 22 c-12 13 -23 27 -23 33 0 11 71 62 117 85 31 16 123 40 156 40 25 1 27 -2 27 -39z m133 25 c64 -17 138 -52 180 -87 l28 -23 -30 -29 -30 -29 -19 33 c-11 17 -21 27 -24 20 -2 -7 -22 -3 -58 14 -30 14 -76 29 -102 32 -48 7 -48 7 -48 45 0 46 10 48 103 24z m-133 -130 c0 -31 -3 -35 -27 -35 -32 0 -109 -33 -136 -57 -17 -16 -19 -15 -43 9 l-26 25 37 29 c41 31 125 63 168 64 24 0 27 -3 27 -35z m178 -1 c45 -23 58 -35 60 -55 5 -42 -18 -52 -59 -25 -40 27 -92 46 -125 46 -21 0 -24 5 -24 36 l0 37 45 -5 c25 -3 71 -18 103 -34z m-487 -104 c-30 -42 -71 -152 -71 -191 0 -16 -7 -19 -41 -19 l-40 0 7 48 c12 83 49 167 109 248 8 11 16 8 38 -15 l29 -28 -31 -43z m745 -2 c26 -51 54 -147 54 -185 0 -20 -5 -23 -40 -23 -38 0 -40 1 -40 33 0 17 -12 59 -25 92 -14 33 -25 61 -25 62 0 1 10 3 23 5 21 4 20 5 -8 18 -16 8 -38 21 -48 29 -16 14 -16 16 10 43 l28 29 23 -28 c13 -15 34 -49 48 -75z m-436 22 c0 -25 -5 -31 -37 -39 -21 -6 -48 -18 -61 -27 -22 -15 -25 -15 -43 2 -10 9 -19 20 -19 24 0 11 75 49 116 59 22 5 40 9 42 10 1 1 2 -12 2 -29z m138 -3 c51 -23 59 -34 39 -54 -13 -13 -22 -13 -81 7 -61 21 -66 25 -66 51 0 27 2 28 33 22 17 -3 51 -15 75 -26z m-362 -65 c-20 -23 -56 -113 -56 -142 0 -16 -7 -20 -35 -20 -28 0 -35 4 -35 19 0 38 39 142 65 177 l28 36 25 -26 c25 -24 25 -26 8 -44z m583 -47 c12 -31 21 -69 21 -85 0 -28 -3 -30 -35 -30 -30 0 -35 3 -35 24 0 33 -19 85 -46 125 -25 37 -23 48 10 61 28 11 57 -21 85 -95z m-396 38 c-18 -9 -33 -23 -33 -31 0 -16 -22 -11 -28 6 -2 7 11 19 30 27 45 19 71 18 31 -2z m122 7 c11 -18 -23 -111 -43 -118 -8 -2 -12 16 -12 62 0 63 1 66 24 66 14 0 28 -5 31 -10z m-251 -19 c16 -18 16 -21 -3 -57 -12 -21 -21 -49 -21 -61 0 -19 -5 -23 -30 -23 -26 0 -30 4 -30 28 0 29 46 132 59 132 5 0 16 -9 25 -19z m422 -32 c23 -48 38 -109 26 -109 -7 0 -55 55 -84 99 -16 23 -16 27 -1 43 23 25 34 19 59 -33z m-343 -48 c20 -21 37 -43 37 -50 0 -7 -22 -11 -60 -11 -46 0 -60 3 -60 15 0 17 31 85 39 85 3 0 23 -17 44 -39z m87 14 c0 -8 -8 -15 -19 -15 -10 0 -24 7 -31 15 -11 13 -8 15 19 15 21 0 31 -5 31 -15z m-380 -125 c0 -36 41 -142 72 -188 l30 -44 -25 -26 c-25 -25 -27 -25 -46 -8 -43 39 -109 204 -111 279 0 4 18 7 40 7 34 0 40 -3 40 -20z m101 -2 c0 -13 6 -39 13 -58 11 -30 11 -37 -3 -47 -14 -11 -12 -16 17 -41 33 -28 33 -28 13 -46 -20 -18 -21 -17 -51 30 -30 48 -60 130 -60 166 0 14 8 18 35 18 29 0 35 -4 36 -22z m89 2 c0 -11 -6 -20 -14 -20 -8 0 -17 -8 -20 -17 -6 -15 -8 -15 -16 -3 -6 8 -10 25 -10 38 0 18 6 22 30 22 23 0 30 -4 30 -20z m115 -30 c-26 -27 -53 -47 -58 -43 -10 6 -37 66 -37 83 0 6 29 10 72 10 l72 0 -49 -50z m360 28 c-17 -63 -38 -109 -49 -105 -22 7 -29 51 -13 90 13 29 21 37 42 37 22 0 25 -3 20 -22z m95 -1 c0 -39 -30 -128 -46 -134 -7 -3 -14 -13 -14 -22 0 -9 -5 -22 -12 -29 -8 -8 -15 -3 -27 21 -16 30 -16 34 6 82 13 28 23 62 23 78 0 24 4 27 35 27 30 0 35 -3 35 -23z m106 -28 c-4 -28 -16 -74 -26 -102 -23 -59 -80 -147 -96 -147 -6 0 -21 11 -34 25 l-24 25 29 30 c16 17 37 30 47 30 10 0 18 5 18 10 0 6 -7 10 -16 10 -11 0 -14 5 -9 18 17 40 35 107 35 129 0 20 5 23 41 23 l42 0 -7 -51z m-490 -117 c-7 -6 -96 27 -96 36 0 3 21 28 48 55 l47 48 3 -67 c2 -36 1 -69 -2 -72z m81 70 c-5 -7 -19 -18 -29 -23 -16 -9 -18 -5 -18 42 l0 52 29 -29 c22 -22 27 -32 18 -42z m-151 -77 c10 -8 31 -15 47 -15 24 0 27 -4 27 -31 0 -31 -1 -31 -36 -26 -80 13 -146 70 -92 80 13 2 26 5 29 6 3 0 14 -6 25 -14z m-68 -60 c21 -14 61 -31 90 -37 50 -12 52 -14 52 -45 0 -25 -4 -33 -18 -33 -36 0 -118 30 -166 60 l-48 31 23 25 c12 13 24 24 26 24 2 0 20 -11 41 -25z m207 13 c34 -15 32 -28 -5 -28 -23 0 -30 4 -30 20 0 23 1 24 35 8z m185 -35 c12 -11 -60 -55 -119 -73 -91 -29 -101 -27 -101 15 0 29 4 35 23 36 12 0 42 8 67 18 40 16 114 18 130 4z m-447 -58 c32 -21 82 -42 125 -53 l72 -17 0 -37 c0 -43 0 -44 -89 -23 -69 17 -169 65 -197 96 -16 18 -16 20 6 44 13 14 25 25 27 25 2 0 27 -16 56 -35z m508 9 l28 -26 -27 -22 c-63 -52 -146 -87 -239 -101 l-43 -7 0 41 c0 34 3 41 19 41 39 0 149 41 187 69 21 16 41 30 43 30 3 1 17 -11 32 -25z" fill="#ffffff"/>
<path d="M6530 3970 c0 -5 5 -10 11 -10 5 0 7 5 4 10 -3 6 -8 10 -11 10 -2 0 -4 -4 -4 -10z" fill="#ffffff"/>
<path d="M3156 4230 c-412 -65 -659 -310 -758 -751 -20 -89 -23 -130 -23 -294 1 -211 15 -295 76 -440 123 -296 399 -455 789 -455 287 0 500 77 661 240 63 63 86 96 128 181 49 99 111 302 97 317 -4 3 -129 8 -280 10 l-273 5 -12 -50 c-17 -71 -65 -149 -113 -183 -113 -82 -284 -78 -390 10 -49 41 -103 150 -118 242 -16 94 -7 259 19 361 30 114 75 198 137 257 79 75 129 94 244 94 82 1 102 -2 144 -24 69 -34 103 -81 123 -168 l17 -72 269 0 270 0 -7 53 c-45 343 -231 565 -542 648 -90 24 -354 35 -458 19z" fill="#ffffff"/>
<path d="M1705 4178 c-3 -13 -55 -327 -115 -698 -69 -420 -117 -684 -126 -698 -20 -31 -72 -52 -129 -52 -38 0 -52 6 -83 34 -37 34 -37 35 -40 123 -2 51 3 116 11 156 l15 67 -253 0 -253 0 -6 -27 c-74 -355 14 -616 245 -726 110 -52 192 -67 371 -67 119 0 172 5 238 20 227 55 384 193 454 400 17 52 57 287 130 760 59 377 108 695 111 708 l5 22 -285 0 -285 0 -5 -22z" fill="#ffffff"/>
<path d="M4446 3282 c-77 -504 -141 -925 -144 -934 -4 -17 14 -18 279 -18 l284 0 143 923 c78 507 142 928 142 935 0 9 -63 12 -282 12 l-283 0 -139 -918z" fill="#ffffff"/>
<path d="M7370 2490 c0 -5 14 -10 30 -10 l30 0 0 -85 c0 -50 4 -85 10 -85 6 0 10 35 10 85 l0 85 35 0 c19 0 35 5 35 10 0 6 -32 10 -75 10 -43 0 -75 -4 -75 -10z" fill="#ffffff"/>
<path d="M7550 2405 c0 -57 4 -95 10 -95 6 0 10 32 10 77 0 89 8 87 40 -10 12 -37 27 -66 33 -64 6 2 22 37 36 78 l26 74 3 -77 c4 -111 22 -97 22 17 0 124 -17 128 -55 15 -15 -44 -30 -78 -34 -76 -4 3 -18 39 -31 80 -18 58 -28 76 -42 76 -16 0 -18 -10 -18 -95z" fill="#ffffff"/>
</g>
</svg>